<?xml version="1.0" encoding="utf-8"?>
<!-- Generator: Adobe Illustrator 27.5.0, SVG Export Plug-In . SVG Version: 6.00 Build 0)  -->
<svg version="1.1" id="Layer_1" xmlns="http://www.w3.org/2000/svg" xmlns:xlink="http://www.w3.org/1999/xlink" x="0px" y="0px"
	 viewBox="0 0 800 800" style="enable-background:new 0 0 800 800;" xml:space="preserve">
<g>
	<g>
		<g>
			<defs>
				<rect id="SVGID_1_" x="-6.363" y="97" width="784.15" height="627.319"/>
			</defs>
			<clipPath id="SVGID_00000183240179243388936570000015041073573994646432_">
				<use xlink:href="#SVGID_1_"  style="overflow:visible;"/>
			</clipPath>
			<g style="clip-path:url(#SVGID_00000183240179243388936570000015041073573994646432_);">
				<g>
					<g>
						<path style="fill:#FFD59A;" d="M604.644,328.534c-3.16-0.787-6.667-3.739-10.338-4.333c1.398-8.914-7.015-14.202-0.17-19.202
							c5.146-3.76,8.965-13.477,11.97-13.041c5.384,0.78,6.179-2.89,16.634,1.502c6.904,2.902,6.501,1.768,5.236,14.172
							c-0.69,6.749-1.23,16.895-4.77,24.878C618.66,330.335,609.588,329.4,604.644,328.534z"/>
						<path style="fill:#001A45;" d="M527.865,537.352l79.002-80.421l16.874-125.664c0,0,0.058-0.402,0.163-1.127
							c-4.1-0.36-31.783-4.967-31.783-4.967l-33.225,120.124l-82.353,53.492C476.543,498.789,506.411,540.92,527.865,537.352z"/>
						
							<rect x="602.986" y="311.712" transform="matrix(0.2902 -0.957 0.957 0.2902 117.2923 815.1187)" style="fill:#E6E6E6;" width="10.333" height="33.552"/>
						<polygon style="fill:#00102E;" points="479.098,707.072 528.18,716.227 493.901,798.552 						"/>
						<g>
							<path style="fill:#030202;" d="M609.541,961.988c0.207,2.359,0.592,3.754,1.185,3.982c7.194,2.758,1.738,16.404,3.823,18.518
								c10.236,10.384,50.896,46.079,58.318,36.091c7.42-9.988-29.012-48.181-29.012-48.181l0.123-0.68
								C632.139,969.581,620.188,965.289,609.541,961.988z"/>
							<path style="fill:#001A45;" d="M428.491,729.267l-0.81,1.131l-78.584,179.924l-98.486,46.848
								c5.623,6.274,5.893,8.473,11.344,14.604l126.334-29.725l106.58-143.858l114.48,21.282c0,0,0.535,124.99-2.523,145.891
								c1.451,7.599,29.61,13.763,40.893,2.213l21.651-195.845c0,0-186.289-61.789-185.271-62.778
								C463.764,710.703,478.221,699.421,428.491,729.267z"/>
							<path style="fill:#00102E;" d="M633.008,798.411c-8.814,4.229-47.156,12.072-56.683,12.063
								c-3.565,0.326-7.198-1.989-11.134-2.89c-18.328-4.878-35.054-6.878-52.521-11.332c-12.654-2.787-30.414-23.269-93.387-45.567
								c1.355,5.681,45.308,81.989,51.713,80.533l23.873-33.025l115.539,21.976c0,0-2.156,31.02-1.617,34.39
								C618.559,850.404,612.75,808.128,633.008,798.411z"/>
							<path style="fill:#00102E;" d="M374.507,944.712l12.698-2.896c-13.621-1.172-12.604-6.607-25.326-10.855
								C369.785,938.805,366.103,941.086,374.507,944.712z"/>
							<path style="fill:#030202;" d="M250.587,958.29c0,0,2.794,5.585-15.227,24.588c-23.275,27.079-0.245,30.78-0.245,30.78
								l28.192-40.764l0.592-0.328c-4.281-4.813-8.118-9.958-12.533-14.883L250.587,958.29z"/>
						</g>
						<path style="fill:#00102E;" d="M483.756,709.844c0,0,3.412,50.565,3.184,51.55c-0.227,0.986-3.006,37.141-3.006,37.141
							s-41.797-20.454-46.133-32.256c-4.336-11.801-5.153-20.401-3.879-20.522c1.273-0.121,21.143-0.724,23.723-0.648
							C460.223,745.185,482.328,715.122,483.756,709.844z"/>
						<path style="fill:#E3E3E3;" d="M444.902,502.991l-41.777,10.521c25.285,28.861,33.553,75.523,44.254,112.768
							c5.836,21.145,9.902,41.874,14.158,63.394c3.75,17.148,14.755,18.309,14.755,18.309l51.312,8.942
							c3.758-3.772,13.228-37.79,5.121-55.447c0,0-9.27-9.675-2.791-61.812c0.797-6.41-3.121-7.898-2.723-14.404
							C496.496,499.485,494.836,510.431,444.902,502.991z"/>
						<path style="fill:#C9C9C9;" d="M408.385,515.345l56.197,30.515l-0.564-15.5c0,0,35.125,88.092,35.43,87.569
							c0.301-0.524-23.916-85.103-23.916-85.103l0.721-5.243l9.787,1.807l0.618-24.791l-6.353-3.886l-11.688,18.55
							c0,0-13.182,7.341-13.865,7.436C454.068,526.793,408.385,515.345,408.385,515.345z"/>
						<path style="fill:#FFC16B;" d="M433.316,467.65l-17.871,5.151c0,0-8.963,28.192-10.998,33.96
							c-2.033,5.769,67.171,11.219,67.171,11.219s-0.222-3.783,7.511-13.234c0,0-7.944-10.173-7.529-11.906
							C474.109,482.337,433.316,467.65,433.316,467.65z"/>
						<path style="fill:#001A45;" d="M477.945,595.901c-7.404-41.006-32.582-66.337-82.963-89.463l-27.623,29.338
							c0,0,49.154,134.277,50.508,157.188c2.094,35.464-7.51,42.711-7.51,42.711c8.441,26.664,49.711,56.129,67.697,51.042
							C478.898,774.421,492.824,678.318,477.945,595.901z"/>
						<path style="fill:#00102E;" d="M426.082,545.5c-1.435,6.695-1.642,13.465-6.666,18.982c8.505-2.845,21.175-0.419,23.346,6.993
							c1.423,4.252-9.494,11.005-9.309,11.794c19.156,26.205,37.506,54.572,50.925,84.909c-0.588-25.174-2.458-50.257-6.433-72.277
							c-3.707-20.536-11.873-37.142-25.43-51.507C444.172,547.785,434.547,548.458,426.082,545.5z"/>
						<path style="fill:#00245E;" d="M394.841,506.125l-3.255,7.553c30.42,21.478,21.286,42.826,21.286,42.826l29.235,4.559
							l-15.709,15.602c0,0,44.609,34.293,57.66,84.837c0,0-2.616-45.753-6.258-65.917
							C470.398,554.581,445.221,529.25,394.841,506.125z"/>
						<path style="fill:#001A45;" d="M481.065,500.974l-4.522,9.721c27.967,46.901,49.096,121.785,50.174,179.782
							c24.586-64.391-4.398-179.44-4.398-179.44L481.065,500.974z"/>
						<path style="fill:#00102E;" d="M531.781,590.275c0.762-6.45-4.678-24.411-4.678-24.411s-3.552-3.752-10.592-9.898
							c7.117-4.881,3.066-8.37,9.12-14.604c-5.099,1.298-14.559-8.805-18.878-11.331c-7.828,4.822-1.877,11.162-9.922,16.122
							c18.295,34.694,31.785,53.554,27.123,103.275C528.581,638.826,528.793,609.197,531.781,590.275z"/>
						<path style="fill:#00245E;" d="M525.464,637.944c3.977-30.187-0.199-49.155,8.522-77.963
							c-7.995,1.915-17.584-4.854-23.913-10.099c7.925-4.786,7.569-7.361,14.071-13.949c-18.219-2.923-36.514-18.965-43.079-34.958
							l-4.522,9.721c25.789,43.247,37.783,89.466,47.428,141.027C523.098,647.051,525.281,642.369,525.464,637.944z"/>
						<g>
							<path style="fill:#FFD59A;" d="M401.47,422.225c0,0,3.995-20.602,23.879-25.485c19.882-4.885,25.945-1.986,31.665,11.517
								c5.719,13.502,7.006,24.161,15.123,21.786c8.119-2.376,11.662-6.973,11.662-6.973s6.639,10.267,1.068,19.32
								c-3.357,5.458-9.557,9.93-9.557,9.93s8.649,11.597,17.234,14.881c6.639,2.54,0.732,20.063-28.877,26.454
								c-22.048,4.759-33.008-2.955-34.773-6.654c-2.58-5.411-2.668-6.871-3.975-11.122
								C423.613,471.628,401.47,422.225,401.47,422.225z"/>
							<path style="fill:#382100;" d="M406.397,427.158c0,0,22.447,20.704,20.857,31.018c-1.591,10.314-3.917,25.881-3.917,25.881
								s-0.575,8.084-24.323-11.279c-24.397-19.895-25.072-17.208-24.69-25.174c0.383-7.966,3.469-12.012,3.469-12.012
								s-10.826-7.135-9.17-15.625c1.659-8.49,20.891-28.158,42.636-38.195c21.748-10.038,43.854-11.771,48.616,0.193
								C463.797,391.812,450.668,419.924,406.397,427.158z"/>
							<path style="fill:#261700;" d="M450.42,374.477c4.772,10.768-32.404,10.739-54.27,26.447
								c-9.293,6.674-15.582,15.535-15.753,24.701c-0.173,9.166,13.169,4.615,13.169,4.615s-9.467,3.923-12.354,6.426
								c-2.888,2.502,4.317,16.683,8.523,22.599c3.651,5.136,16.533,23.485,33.914,22.692c0.689-4.592,2.367-15.77,3.604-23.781
								c1.59-10.314-20.857-31.018-20.857-31.018c44.271-7.234,57.4-35.347,53.478-45.193
								C458.334,378.098,454.984,375.664,450.42,374.477z"/>
							<path style="fill:#FFD59A;" d="M427.877,454.457c4.584,7.383,2.313,17.084-5.068,21.667
								c-7.381,4.582-17.084,2.314-21.666-5.069c-4.581-7.381-2.315-17.081,5.068-21.664
								C413.594,444.808,423.294,447.077,427.877,454.457z"/>
							<path style="fill:#FFC16B;" d="M423.385,471.73c0,0-5.743,1.434-5.539-4.833c0.102-3.165,4.34-4.667,4.34-4.667
								s-6.344-4.615-9.351-0.679c-3.008,3.934-0.404,7.675-0.404,7.675s-5.791-5.24-0.359-10.116
								c5.432-4.874,11.544,3.454,11.544,3.454s-6.78,2.705-3.288,7.117C421.845,471.601,423.385,471.73,423.385,471.73z"/>
							<path style="fill:#FFC16B;" d="M474.926,452.559c0,0-6.074,1.67-6.668-2.875c-0.346-2.628,0.045-5.003,0.045-5.003
								S463.622,457.312,474.926,452.559z"/>
						</g>
						<g>
							<path style="fill:#001A45;" d="M194.383,477.689l20.063-20.109l88.371,69.42l66.447,6.754
								c0.09-0.35,19.754,63.042,19.754,63.042l-118.984-37.537L194.383,477.689z"/>
						</g>
						<path style="fill:#00102E;" d="M401.982,634.05c-0.059-0.637-7.5-36.002-7.5-36.002l3.863-20.691l-9.328,19.439
							L401.982,634.05z"/>
						<path style="fill:#E3E3E3;" d="M507.553,626.587l-1.629-48.7c0,0,15.869,36.204,18.799,48.996
							c2.93,12.792,8.823,31.945,10.419,39.721c1.596,7.776,0.813,24.35-2.038,30.406c-2.852,6.057-13.156,3.608-13.156,3.608
							l-10.84-53.181C509.107,647.437,507.17,627.052,507.553,626.587z"/>
						<path style="fill:#C9C9C9;" d="M498.336,556.11c0,0,24.596,72.228,25.789,75.758c1.191,3.528,9.621,29.084,9.621,29.084
							s-11.367-45.202-14.25-50.714C516.615,604.726,498.336,556.11,498.336,556.11z"/>
						<path style="fill:#C60022;" d="M455.188,523.525l15.545,1.721c0,0,26.744,139.58,82.943,149.238
							c12.619-2.485,17.391-6.367,17.391-6.367l-5.699-14.886c0,0-32.68-1.18-50.875-30.306
							c-25.395-40.647-39.744-100.088-39.744-100.088l5.666-11.59l-14.129,1.133L455.188,523.525z"/>
						<g>
							<polygon style="fill:#E3E3E3;" points="404.059,499.72 470.402,511.552 475.846,498.343 482.558,501.654 482.69,525.889 
								470.649,512.994 455.881,533.753 401.566,508.654 							"/>
							<g>
								<path style="fill:#FFFFFF;" d="M470.402,511.552l-43.383-2.496c4.432,7.783,6.396,8.024,10.111,15.934l18.75,8.763
									l14.769-20.759l12.04,12.895l0.154-19.837c-0.154-1.128-5.588-5.358-5.588-5.358L470.402,511.552z"/>
							</g>
						</g>
					</g>
					<g>
						<path style="fill:#FFD59A;" d="M200.17,468.101c-1.98,2.392-5.973,4.191-7.998,7.105c-3.773-2.326-10.848-10.113-17.07-15.287
							c-7.107-5.911,2.989-18.704,11.137-22.295c8.22-3.622,2.881,4.992,10.068,2.158c6.026-2.376,12.102,12.664,13.529,17.366
							C206.086,460.16,202.957,464.205,200.17,468.101z"/>
						<polygon style="fill:#E6E6E6;" points="210.133,453.098 189.717,474.821 197.291,481.848 217.707,460.128 						"/>
					</g>
				</g>
				<g>
					<g>
						<path style="fill:none;" d="M112.33,398.175"/>
					</g>
					<g>
						<path style="fill:#122B42;" d="M120.248,406.315c-1.35,1.346-3.537,1.339-4.886-0.012l-4.302-4.442
							c-1.345-1.351-1.342-3.533,0.004-4.88c0,0,0.006-0.003,0.008-0.004c1.351-1.346,3.535-1.342,4.885,0.01l4.303,4.441
							c1.343,1.35,1.34,3.533-0.006,4.881L120.248,406.315z"/>
					</g>
					<path style="fill:#1C4563;" d="M114.611,400.455c0,0.001,0,0.001,0,0.001c-5.12,5.12-11.922,7.933-19.145,7.921
						c-14.888-0.027-26.98-12.162-26.953-27.048c0.012-7.186,2.823-13.948,7.916-19.043c5.118-5.116,11.914-7.927,19.133-7.917
						c7.203,0.015,13.979,2.839,19.076,7.953c5.096,5.114,7.897,11.899,7.885,19.103
						C122.51,388.605,119.703,395.364,114.611,400.455L114.611,400.455z"/>
					<path style="fill:#FFFFFF;" d="M81.314,367.174c-3.788,3.79-5.882,8.823-5.893,14.168
						c-0.021,11.079,8.975,20.107,20.057,20.126c5.373,0.008,10.432-2.083,14.25-5.898l0,0c3.788-3.788,5.879-8.816,5.89-14.158
						c0.009-5.359-2.077-10.406-5.872-14.213c-3.795-3.81-8.835-5.91-14.195-5.921C90.184,361.27,85.127,363.363,81.314,367.174
						L81.314,367.174z"/>
					<path style="fill:#122B42;" d="M148.367,434.422c-0.006,0.002-0.008,0.007-0.012,0.011c-2.701,2.691-7.077,2.68-9.77-0.021
						l-21.067-21.168c-2.687-2.703-2.678-7.069,0.012-9.758c0.008-0.003,0.01-0.008,0.013-0.012
						c2.706-2.693,7.079-2.683,9.771,0.022l21.07,21.167C151.064,427.364,151.06,431.729,148.367,434.422L148.367,434.422z"/>
				</g>
				<g>
					<path style="fill:#D1D3D4;" d="M333.207,223.767c0-3.054,2.478-5.538,5.539-5.538h74.07c3.053,0,5.537,2.484,5.537,5.538
						v48.458c0,3.063-2.484,5.54-5.537,5.54h-74.07c-3.061,0-5.539-2.478-5.539-5.54V223.767z"/>
					<path style="fill:#F1F2F2;" d="M362.491,248.403l-28.915,25.779c0.797,2.088,2.803,3.582,5.17,3.582h74.07
						c2.365,0,4.373-1.494,5.159-3.582l-29.228-26.068"/>
					<path style="fill:#D1D3D4;" d="M333.576,222.157l42.203,41.256l42.196-41.256c-0.786-2.291-2.794-3.928-5.159-3.928h-74.07
						C336.379,218.229,334.373,219.866,333.576,222.157z"/>
					<path style="fill:#F1F2F2;" d="M333.576,221.812l42.203,37.629l42.196-37.629c-0.786-2.087-2.794-3.583-5.159-3.583h-74.07
						C336.379,218.229,334.373,219.724,333.576,221.812z"/>
				</g>
				<g>
					<path style="fill:#1C4563;" d="M218.85,336.928h-4.676c-0.342-1.651-0.791-3.245-1.361-4.794l3.912-2.256
						c0.936-0.542,1.257-1.739,0.722-2.686l-3.922-6.789c-0.55-0.935-1.751-1.257-2.679-0.717l-4.068,2.345
						c-1.09-1.242-2.282-2.404-3.558-3.466l2.261-3.918c0.54-0.945,0.219-2.139-0.719-2.684l-6.791-3.921
						c-0.932-0.536-2.133-0.216-2.676,0.721l-2.342,4.061c-1.561-0.532-3.174-0.937-4.825-1.222v-4.528
						c0-1.08-0.874-1.963-1.96-1.963h-7.836c-1.093,0-1.971,0.883-1.971,1.963v4.685c-1.641,0.33-3.238,0.785-4.787,1.353
						l-2.25-3.914c-0.548-0.944-1.746-1.259-2.692-0.722l-6.79,3.928c-0.934,0.538-1.253,1.738-0.713,2.675l2.346,4.066
						c-1.244,1.095-2.411,2.281-3.466,3.555l-3.917-2.261c-0.943-0.538-2.139-0.213-2.682,0.724l-3.928,6.789
						c-0.54,0.937-0.221,2.137,0.721,2.677l4.059,2.343c-0.527,1.562-0.935,3.167-1.217,4.817h-4.523
						c-1.088,0-1.966,0.887-1.966,1.968v7.837c0,1.085,0.878,1.959,1.966,1.959h4.684c0.328,1.651,0.777,3.256,1.348,4.796
						l-3.915,2.26c-0.938,0.543-1.251,1.743-0.717,2.678l3.918,6.787c0.539,0.937,1.743,1.262,2.683,0.725l4.067-2.348
						c1.097,1.247,2.284,2.417,3.558,3.471l-2.262,3.92c-0.543,0.937-0.224,2.139,0.713,2.676l6.8,3.924
						c0.938,0.536,2.136,0.216,2.671-0.718l2.35-4.061c1.559,0.525,3.166,0.934,4.821,1.212v4.535c0,1.084,0.874,1.957,1.954,1.957
						l7.849,0.006c1.081,0,1.962-0.878,1.962-1.962v-4.682c1.636-0.337,3.235-0.783,4.785-1.351l2.265,3.904
						c0.542,0.947,1.73,1.263,2.672,0.721l6.799-3.924c0.931-0.533,1.253-1.737,0.712-2.682l-2.348-4.061
						c1.246-1.091,2.41-2.28,3.474-3.558l3.921,2.265c0.941,0.542,2.129,0.219,2.678-0.719l3.92-6.793
						c0.541-0.937,0.217-2.139-0.715-2.674l-4.061-2.349c0.526-1.555,0.934-3.167,1.219-4.813h4.526c1.083,0,1.957-0.88,1.959-1.968
						v-7.843C220.813,337.799,219.93,336.928,218.85,336.928z M182.686,358.889c-8.642,0-15.647-7.01-15.647-15.646
						c0-8.644,7.006-15.647,15.647-15.647c8.641,0,15.645,7.004,15.645,15.647C198.33,351.879,191.326,358.889,182.686,358.889z"/>
					<path style="fill:#122B42;" d="M182.682,318.472c-13.682,0-24.77,11.089-24.77,24.774c0,13.673,11.088,24.77,24.77,24.77
						c13.684,0,24.777-11.097,24.777-24.77C207.459,329.562,196.365,318.472,182.682,318.472z M182.686,363.586
						c-11.238,0-20.348-9.11-20.348-20.343c0-11.238,9.109-20.348,20.348-20.348c11.236,0,20.342,9.11,20.342,20.348
						C203.027,354.476,193.922,363.586,182.686,363.586z"/>
					<path style="fill:#122B42;" d="M182.682,318.472c-0.231,0-0.453,0.004-0.68,0.012v4.433c0.227-0.012,0.448-0.022,0.684-0.022
						c11.236,0,20.342,9.11,20.342,20.348c0,11.232-9.105,20.343-20.342,20.343c-0.235,0-0.457-0.01-0.684-0.02v4.434
						c0.227,0.004,0.448,0.016,0.68,0.016c13.684,0,24.777-11.097,24.777-24.77C207.459,329.562,196.365,318.472,182.682,318.472z"
						/>
				</g>
				<g>
					<path style="fill:#27AAE1;" d="M489.468,192.476c-22.58,0-40.95,18.371-40.95,40.945c0,22.579,18.37,40.943,40.95,40.943
						c22.575,0,40.942-18.365,40.942-40.943C530.41,210.846,512.043,192.476,489.468,192.476z"/>
					<g>
						<path style="fill:#FFFFFF;" d="M528.638,244.551c-0.541,0.012-1.241,0.267-1.251,0.45c-0.012,0.187-0.756,0.518-1.002,0.618
							c-0.244,0.1-0.721,0.859-0.826,1.109c-0.104,0.25-0.71,0.176-0.936,0.277c-0.225,0.098-0.686,0.471-0.688,0.696
							c-0.002,0.221-0.127,0.198-0.279-0.058c0,0,0,0-0.294,0.312c-0.349,0.388-0.349,0.388-0.349,0.388
							c-0.201,0.629-0.869,1.424-1.098,1.492c-0.227,0.062-0.268,1.168-0.268,1.612c0,0.447,0.17,0.996,0.385,1.222
							c0,0,0,0,0.047,0.354c0.075,0.704,0.075,0.704,0.075,0.704c-0.122,0.542,0.29,1.029,0.411,1.126
							c0.12,0.091,1.133-0.182,1.521-0.277c0.158-0.038,0.359-0.126,0.55-0.224c1.812-3.028,3.229-6.312,4.216-9.778
							C528.779,244.558,528.705,244.549,528.638,244.551z"/>
						<path style="fill:#FFFFFF;" d="M461.028,245.6c-0.057,0.11,0.673,0.862,0.96,1.117c0.284,0.258,0.885,1.486,1.006,1.889
							c0.123,0.403,0.051,1.063,0.012,1.22c-0.036,0.154,0.136,0.496,0.168,0.638c0.024,0.141-0.253,1.346-0.145,1.829
							c0.104,0.487-0.568,1.997-0.553,2.748c0.017,0.75,0.354,1.729,0.493,1.656c0.136-0.073,0.183,0.682-0.048,0.773
							c-0.227,0.093-0.494,0.689-0.367,0.72c0.129,0.03-0.008,0.62,0.031,0.857c0.029,0.236,0.232,1.796,0.271,2.182
							c0.045,0.388,0.602,1.337,0.718,1.657c0.114,0.322,0.233,0.93,0.28,1.022c0.043,0.094,0.102,0.189,0.107,0.192
							c0.01,0.003,0.455,0.169,0.584,0.267c0.135,0.098,1.01,0.036,1.297-0.023c0.285-0.059,0.023-0.321-0.107-0.461
							c-0.13-0.145-0.243-0.835-0.392-0.905c-0.148-0.07-0.213-0.952-0.081-1.146c0.13-0.196,0.651-0.508,0.714-0.671
							c0.052-0.162,0.068-0.932-0.07-1.038c-0.143-0.105,0.039-1.037-0.064-1.5c-0.107-0.461,0.803-0.884,0.855-1.249
							c0.054-0.367,1.035-0.763,1.261-0.946c0.224-0.185,0.415-1.235,0.312-1.463c-0.108-0.223,0.361-0.405,0.574-0.405
							c0.208,0,0.441-0.152,0.525-0.152c0.08-0.001,0.33-0.467,0.463-0.573c0.136-0.108,0.414-1.216,0.658-1.401
							c0.246-0.182,0.447-0.853,0.447-1.049c0-0.196,0.371-0.782,0.496-0.957c0.121-0.176,1.041-0.599,1.205-0.663
							c0.166-0.069,0.414-1.547,0.477-2.076c0.064-0.531,0.34-1.24,0.36-1.415c0.019-0.174,0.313-0.322,0.367-0.379
							c0.057-0.053,0.276-0.73,0.415-0.885c0.143-0.155,0.649-0.8,0.662-0.944c0.012-0.145,0.086-0.513,0.173-0.821
							c0,0,0,0-0.003-0.36c0.004-0.575,0.004-0.575,0.004-0.575c-0.16-0.446-0.652-1.002-0.779-0.879
							c-0.126,0.123-0.695-0.393-0.986-0.503c-0.291-0.108-1.012-0.198-1.193-0.198c-0.186,0-0.818-0.517-1.102-0.608
							c-0.285-0.087-1.008-0.228-1.141-0.311c-0.131-0.086-0.309-1.162-0.891-1.513c-0.584-0.351-1.605-1.17-1.719-1.475
							c-0.111-0.299-1.229-0.934-1.576-1.122c-0.345-0.193-0.869-0.237-0.934-0.168c-0.07,0.065-0.5-0.582-0.721-0.769
							c-0.225-0.18-0.895-0.334-0.924-0.169c-0.031,0.165-0.477,0.078-0.582-0.063c-0.102-0.139-0.448,0.058-0.611,0.11
							c-0.16,0.052-0.719,0.902-0.971,1.108c-0.259,0.201-0.564-0.189-0.73-0.264c-0.17-0.072-0.813,0.126-0.988,0.252
							c-0.174,0.125-0.581-0.9-0.486-1.373c0.095-0.472-0.422-1.409-0.821-1.432c-0.397-0.023-0.521-1.008-0.442-1.372
							c0.079-0.363-0.717-0.591-0.92-0.615c-0.203-0.028-0.7,0.485-0.782,0.729c-0.089,0.246-1.899-0.333-1.683-1.419
							c0.208-1.087,1.067-2.211,1.283-2.345c0.213-0.13,1.379-0.198,1.635-0.05c0.26,0.149,0.489-0.003,0.535-0.069
							c0.043-0.066,0.992,0.01,1.277,0.126c0.281,0.116,0.689,1.213,0.98,1.347c0.299,0.137,0.402-0.707,0.45-0.913
							c0.048-0.206-0.143-0.729-0.214-0.874c-0.072-0.146,0.471-1.477,0.918-1.703c0.441-0.228,0.91-0.967,0.875-1.097
							c-0.039-0.13,0.355-0.233,0.459-0.291c0.107-0.051-0.016-1.129,0.159-1.362c0.177-0.233,1.008-0.725,1.272-0.837
							c0.264-0.11,0.461-0.79,0.366-0.909c-0.097-0.12,0.684-0.782,1.087-0.912c0.4-0.123,0.75,0.233,0.651,0.289
							c0.081-0.042,0.638-0.331,0.878-0.488c0.273-0.183,0.001-0.688-0.178-0.837c-0.178-0.144-0.07-0.728,0.143-0.782
							c0.218-0.052,0.404-0.558,0.347-0.667c-0.057-0.11,0.89,0.087,1.251-0.182c0.355-0.266,0.103,0.643-0.161,1.008
							c-0.263,0.365,0.19,0.712,0.36,0.643c0.17-0.071,0.35,0.194,0.387,0.297c0.033,0.102,0.398-0.107,0.637-0.003
							c0.238,0.105,0.377-0.327,0.4-0.524c0.014-0.199-0.573-0.613-0.666-0.85c-0.09-0.239-0.129-1.626-0.141-1.911
							c-0.014-0.284-0.396-0.746-0.518-0.663c-0.123,0.078-0.374-0.738-0.572-0.917c-0.198-0.178-0.242-0.57-0.234-0.702
							c0.01-0.132-0.67-0.84-0.838-1.172c-0.16-0.328-0.391-0.26-0.406-0.11c-0.018,0.151-0.486,0.171-0.68,0.153
							c-0.199-0.018-0.357-0.77-0.357-1.053c0-0.283-0.875-0.331-1.022-0.561c-0.143-0.228-0.713-0.12-0.807-0.279
							c-0.089-0.157-0.596-0.304-0.694-0.245c-0.103,0.059-0.056,2.095-0.15,2.645c-0.097,0.548-0.563,1.031-0.735,1.019
							c-0.166-0.012-0.066,0.392,0.051,0.356c0.119-0.038-0.328,0.599-0.389,1.017c-0.059,0.416-0.482-0.02-0.551-0.397
							c-0.07-0.379-0.482-0.891-0.56-0.76c-0.078,0.127-0.363-0.156-0.489-0.076c-0.122,0.082-0.905-0.454-1.22-0.627
							c-0.316-0.168-0.492-1.138-0.676-1.222c-0.182-0.087-0.028-0.203-0.035-0.349c-0.006-0.148,0.611-0.712,0.798-0.935
							c0.186-0.225,0.862-1.104,1.133-1.293c0.27-0.193,0.478-0.696,0.431-0.79c-0.045-0.091,1.152-0.464,1.476-0.577
							c0.322-0.11,0.602-1.014,0.646-1.272c0.044-0.26-0.204-0.751-0.353-0.816c-0.15-0.064,0.451-0.087,0.65,0.015
							c0.201,0.096,0.818-0.184,1.063-0.055c0.24,0.128,0.732,0.42,1.091,0.646c0,0,0,0-0.078,0.663
							c-0.144,1.124-0.144,1.124-0.144,1.124c-0.943,0.392-1.213,1.066-0.881,1.052c0.326-0.016,1.832,0.65,2.258,0.957
							c0.422,0.304,0.559-0.44,0.684-0.69c0.125-0.245,0.084-0.966-0.018-1.109c-0.101-0.145,0.492-0.093,0.66,0.068
							c0.166,0.158,0.36-0.167,0.49-0.224c0.129-0.059,0.189-0.675,0.263-0.799c0.067-0.126-0.282-0.252-0.294-0.404
							c-0.009-0.159-0.688-0.452-0.906-0.557c-0.222-0.105-0.272-0.572-0.164-0.652c0.107-0.082-0.071-0.675-0.184-0.871
							c-0.105-0.196-0.814-0.357-1.051-0.357c-0.233,0-0.477-0.547-0.611-0.625c-0.137-0.079-1.045-0.178-1.266-0.112
							c-0.226,0.066-0.637-0.643-1.018-0.427c-0.377,0.217-0.766-0.253-0.938-0.348c-0.172-0.093-1.059,0.858-1.05,1.527
							c0.007,0.671,0.346,1.316,0.483,1.336c0.141,0.019-0.031,0.623-0.185,0.796c-0.152,0.171-0.527-0.182-0.385-0.333
							c0.138-0.151-0.387-0.853-0.566-1.137c-0.13-0.206-0.59-0.39-0.902-0.514c-0.186,0.197-0.36,0.4-0.538,0.604
							c0.067,0.244,0.151,0.559,0.073,0.799c-0.134,0.408-0.475,0.468-0.496,0.292c-0.008-0.078-0.182-0.135-0.383-0.164
							c-4.961,5.948-8.262,13.32-9.207,21.403c0.197,0.226,0.42,0.491,0.48,0.683c0.111,0.36,0.737,0.596,0.855,0.67
							c0.117,0.071,0.156-0.69,0.071-0.888c-0.077-0.197,0.152-0.314,0.147-0.168c-0.004,0.146,0.588,0.813,0.783,1.056
							c0.197,0.24,0.397,1.803,0.584,2.138c0.188,0.336,1.989,1.029,2.57,1.15c0.581,0.125,1.313,0.773,1.426,0.96
							c0.113,0.187,0.883,0.281,1.05,0.354c0.165,0.08,0.562,0.602,0.725,0.71c0.164,0.11,0.295,0.42,0.295,0.503
							c0,0.083,1.017,0.467,1.266,0.74c0.242,0.272,0.65,0.197,0.73,0.081c0.078-0.115,0.277,0.542,0.383,0.768
							c0.103,0.228,0.129,0.784,0.047,0.872c-0.077,0.086-0.225,1.113-0.397,1.316c-0.174,0.206-0.533,1.695-0.459,1.987
							c0.08,0.296,0.558,0.902,0.765,0.993c0.206,0.09,0.118,0.407-0.042,0.43c-0.165,0.02-0.09,1.443,0.293,1.653
							C460.764,244.861,461.083,245.492,461.028,245.6z"/>
						<path style="fill:#FFFFFF;" d="M465.846,220.659l0.003-0.001C465.837,220.666,465.832,220.667,465.846,220.659z"/>
						<path style="fill:#FFFFFF;" d="M463.047,203.391c0.49-0.082,1.309-0.217,1.365-0.357c0.039-0.111,0.044-0.449-0.049-0.566
							c0.078,0.005,0.17,0.01,0.236,0.01c0.186,0,0.498-1.021,0.693-1.258c0.197-0.239,1.317-0.59,1.584-0.752
							c0.27-0.162,0.851-0.723,1.076-0.789c0.225-0.068,0.552-0.592,0.5-0.699c-0.048-0.104,0.762-0.593,1.068-0.723
							c0.306-0.13,0.463-0.49,0.35-0.504c-0.074-0.011-1.782,0.885-3.352,1.772c-1.785,1.213-3.467,2.57-5.037,4.045
							C461.971,203.534,462.728,203.443,463.047,203.391z"/>
						<path style="fill:#FFFFFF;" d="M492.662,254.354c0.523-0.309,1.414-1.626,1.705-1.902c0.293-0.278,0.507-1.275,0.572-1.493
							c0.057-0.217,0.501-0.57,0.669-0.618c0.164-0.044,0.694-2.256,1.161-2.737c0.465-0.482,1.014-2.816,0.955-3.657
							c-0.059-0.836,0.297-2.436,0.408-2.821c0.111-0.386,0.695-1.068,0.88-1.208c0.179-0.143,1.304-1.808,1.669-2.405
							c0.358-0.597,0.708-1.909,0.636-2.214c-0.069-0.308-0.851-0.523-1-0.372c-0.146,0.152-0.884,0.277-1.118,0.277
							c-0.236,0-0.777-1.263-1.111-1.523c-0.336-0.26-0.638-1.706-0.83-1.98c-0.193-0.273-0.736-0.967-0.902-1.126
							c-0.171-0.158-0.199-0.926-0.236-1.137c-0.039-0.208,0.324,0.137,0.387,0.442c0.064,0.307,0.933,1.539,1.2,1.955
							c0.269,0.416,0.974,1.736,1.155,2.151c0.181,0.414,1.754,0.204,2.265-0.036c0.513-0.244,1.149-0.65,1.171-0.792
							c0.023-0.143,0.84-0.517,1.064-0.698c0.227-0.18,0.429-1.128,0.575-1.279c0.148-0.155-0.116-1.057-0.29-1.326
							c-0.168-0.269-0.984-0.482-1.149-0.377c-0.166,0.107-0.52-0.607-0.645-0.866c-0.125-0.264-0.749-0.583-0.816-0.761
							c-0.066-0.182,0.167-0.463,0.267-0.524c0.097-0.064,1.251,0.746,1.583,1.148c0.328,0.401,0.707,1.139,0.772,1.27
							c0.059,0.127,0.969,0.192,1.174,0.043c0.201-0.148,0.434-0.109,0.514,0.085c0,0,0,0,0.286-0.05
							c0.997-0.156,0.997-0.156,0.997-0.156c0.473,0.511,0.608,0.954,0.598,1.056c-0.012,0.098,0.289,0.515,0.481,0.557
							c0.194,0.047,0.333,0.699,0.395,0.861c0.057,0.162,0.625,1.138,0.742,1.548c0.116,0.411,0.603,1.213,0.717,1.428
							c0.115,0.216,0.212,0.837,0.212,1.009c0,0.167,0.363,0.504,0.593,0.488c0.226-0.017,0.684-1.445,0.789-1.977
							c0.106-0.532,0.473-0.971,0.574-0.971c0.106,0,0.189-0.299,0.189-0.413c0-0.11,0.58-0.1,0.632-0.244
							c0.046-0.146,0.22-1.09,0.425-1.232c0.207-0.144,0.938-0.624,1.196-0.713c0.255-0.089,0.911,0.476,1.06,0.741
							c0.143,0.262,0.277,0.935,0.221,1.044c-0.055,0.11,0.346,0.689,0.696,0.681c0.347-0.011,0.458,0.441,0.468,0.605
							c0.016,0.164,0.475,0.632,0.564,0.842c0.092,0.208,0.065,0.777,0.004,0.908c-0.063,0.129-0.019,0.877,0.047,1.088
							c0.068,0.208,1.141,1.295,1.543,1.626c0.404,0.33,0.592-0.673,0.388-0.985c-0.207-0.311-0.909-1.038-1.073-1.252
							c-0.166-0.219-0.194-1.09-0.129-1.332c0.057-0.245,0.61,0.134,0.842,0.31c0.229,0.176,0.528,0.567,0.537,0.699
							c0.009,0.131,1.447-0.674,1.497-1.55c0.051-0.876,0.53-1.862,0.577-2.092c0.047-0.232-0.143-0.547-0.264-0.556
							c-0.121-0.013,0.214-0.668,0.617-0.659c0.406,0.014,1.378-1.069,1.607-1.498s0.691-0.782,0.744-0.839
							c0.057-0.049,0.38-1.066,0.433-1.486c0.056-0.418-0.235-1.076-0.271-1.293c-0.035-0.216-0.381-0.716-0.473-0.874
							c-0.088-0.157-0.174-0.745-0.119-0.855c0.054-0.107,0.418-0.224,0.457-0.322c0.037-0.1,0.457-0.543,0.422-0.739
							c-0.026-0.196,0.259,0.253,0.451,0.417c0.19,0.16,0.397,1.204,0.634,1.32c0.234,0.114,1.192-1.106,1.071-1.896
							c-0.115-0.789,0.279-1.795,0.51-1.886c0.175-0.069,0.623-0.707,0.927-1.164c-2.102-6.069-5.586-11.491-10.084-15.894
							c-0.052,0.003-0.104,0.005-0.155-0.005c-0.352-0.076-0.352-0.076-0.352-0.076c-0.586-0.124-0.928-0.753-0.828-0.897
							c0.034-0.046,0.025-0.151-0.004-0.275c-0.325-0.296-0.66-0.587-1.004-0.87c-0.275-0.009-0.567,0-0.739-0.009
							c-0.353-0.013-1.112-0.263-1.251-0.399c-0.138-0.137-0.598,0.121-0.625,0.377c-0.032,0.252-0.831,0.37-0.906,0.564
							c-0.081,0.193-0.491,0.207-0.57,0.098c-0.081-0.107-0.824,0.262-1.195,0.316c-0.37,0.051-1.058,0.352-1.225,0.425
							c-0.166,0.074-0.557,0.456-0.621,0.615c-0.063,0.16-0.537,0.425-0.689,0.485c-0.152,0.062-0.121,0.752,0.074,0.851
							c0.197,0.094-0.364-0.084-0.611-0.212c-0.251-0.125-0.523,0.295-0.601,0.44c-0.081,0.142-0.308-0.087-0.298-0.293
							c0.01-0.208-0.61-0.374-0.693-0.208c-0.082,0.164-0.514-0.055-0.691-0.148c-0.18-0.096-0.949,0.709-1.234,0.998
							c-0.287,0.287-1.652,0.511-1.91,0.402c-0.256-0.106-0.506,0.606-0.287,0.654c0.217,0.043-0.556-0.035-0.979,0.004
							c-0.426,0.041-1.661,0.535-1.955,0.753c-0.297,0.224-0.531-0.045-0.531-0.216c0-0.169-0.471-0.326-0.611-0.372
							c-0.137-0.048-0.412,0.923-0.656,1.11c-0.246,0.19-0.54-0.757-1.116-0.912c-0.575-0.157-1.477-0.713-1.734-0.778
							c-0.253-0.068-0.767-0.606-0.911-0.761c-0.144-0.157-0.883-0.285-1.117-0.285c-0.237,0-0.998,0.439-1.205,0.609
							c-0.209,0.172-0.514,0.139-0.613,0.201c-0.105,0.063-0.969,0.907-1.301,1.17c-0.335,0.264-0.922,1.404-1.105,1.674
							c-0.197,0.271-0.471,0.323-0.582,0.329c-0.109,0.006-0.203,0.309-0.203,0.422c0,0.112-0.99,0.626-1.094,1.078
							c-0.105,0.449,0.099,1.476,0.099,1.842c0,0.365,0.364,1.088,0.64,1.101c0.275,0.012,0.133,0.622,0.061,0.789
							c-0.07,0.173,0.173,0.36,0.164,0.504c-0.006,0.147-0.695,0.35-0.904,0.431c-0.216,0.079-0.561,0.56-0.605,0.738
							c-0.038,0.156-0.7,0.266-0.916,0.477c0.052-0.151,0.127-0.36,0.186-0.477c0.127-0.241-0.045-0.662-0.151-0.747
							c-0.104-0.085-0.151-1.276-0.319-1.532c-0.166-0.257-0.584-0.688-0.686-0.773c-0.103-0.082,0.071-0.396,0.131-0.529
							c0.06-0.131-0.553-0.208-0.726-0.11c-0.167,0.098-0.259,1.275-0.328,1.598c-0.071,0.322,0.304,0.819,0.406,0.843
							c0.1,0.023,0.073,0.604-0.143,0.624c-0.217,0.02-0.414,0.866-0.303,1.06c0.112,0.194-0.154,0.574-0.281,0.663
							c-0.127,0.086,0.827,0.036,1.266,0.025c0.434-0.012,0.777,0.184,0.732,0.219c-0.047,0.036-0.838,0.153-0.977,0.341
							c-0.143,0.186-0.679,0.546-0.781,0.69c-0.105,0.143,0.178,0.462,0.404,0.447c0.227-0.014,0.484,0.784,0.662,0.932
							c0.174,0.148,0.109,0.561,0.034,0.677c-0.078,0.111-1.146-0.078-1.55,0.021c-0.408,0.1-0.918,0.957-0.953,1.281
							c-0.037,0.324,0.064,1.254,0.117,1.51c0.052,0.255,0.9,0.417,1.071,0.544c0.174,0.123,0.989,0.003,1.157,0.08
							c0.166,0.082,0.713-0.821,0.823-1.239c0.103-0.422,0.972-1.189,1.15-1.476c0.181-0.285,1.112-0.25,1.343-0.4
							c0.231-0.146,0.102,0.709,0.211,1.178c0.109,0.471,1.003,0.412,0.871-0.03c-0.129-0.439,0.092-0.633,0.125-0.473
							c0.039,0.158,0.895,0.509,1.059,0.758c0.16,0.249,0.115,0.775-0.074,0.77c-0.191-0.008-0.199,0.577,0.002,0.642
							c0.201,0.062,0.471-0.659,0.689-0.766c0.218-0.109,0.39-0.558,0.29-0.591c-0.099-0.037,0.182-0.438,0.307-0.306
							c0.119,0.134-0.458-0.876-0.825-1.243c-0.363-0.367-0.106-0.205,0.573,0.363c0,0,0,0,0.473,0.661
							c0.094,0.118,0.211,0.48,0.294,0.611c0.11,0.195,0.11,0.195,0.11,0.195c0.093,0.232,0.174,0.864,0.174,1.035
							c0,0.169,0.369,0.506,0.594,0.49c0.221-0.016,0.395,0.107,0.35,0.116c-0.047,0.007,0.146,0.445,0.371,0.456
							c0.221,0.009,0.32-0.564,0.092-0.579c-0.223-0.013-0.19-0.845-0.217-1.205c-0.027-0.363,0.162-0.66,0.236-0.66
							c0.078,0-0.006,0.744-0.001,0.915c0.001,0.173,0.095,0.509,0.203,0.751c0,0,0,0,0.229,0.174
							c0.518,0.397,0.518,0.397,0.518,0.397c0.74-0.219,1.735-0.05,1.699,0.102c-0.042,0.151,0.547,0.187,0.584-0.057
							c0.033-0.243,0.063,0.007,0.063,0.176c0,0.167-0.488,0.828-0.568,1.135c-0.086,0.304-1.793,0.098-2.529,0.041
							c-0.736-0.056-1.824,0.196-1.906,0.415c-0.084,0.221-1.23-0.506-1.76-0.727c-0.527-0.223-0.94-1.026-1.048-1.129
							c-0.11-0.108,0.091-0.365,0.038-0.524c-0.049-0.16-1.252-0.195-1.602-0.062c-0.352,0.128-2.154,0.319-2.58,0.506
							c-0.426,0.19-1.068-0.013-1.27-0.048c-0.199-0.034-0.679,0.554-0.918,0.661c-0.246,0.107-0.551,0.941-0.683,1.858
							c0,0,0,0-0.33,0.638c-0.211,0.408-0.211,0.408-0.211,0.408c-0.595,0.455-1.254,1.965-1.447,2.269
							c-0.193,0.304-0.348,2.481-0.348,3.213c0,0.732,0.638,2.285,0.816,2.71c0.182,0.428,1.287,1.375,1.655,1.602
							c0.37,0.221,1.569,0.252,1.963,0.25c0.39-0.003,0.839-0.374,0.993-0.83c0,0,0,0,0.577,0.059
							c0.263,0.025,0.263,0.025,0.263,0.025c0.014,0.324,0.865,0.581,1.074,0.695c0.207,0.114,0.769,0.027,0.936-0.021
							c0.165-0.048,0.352,1.456,0.231,1.892c-0.12,0.433,0.298,1.959,0.418,2.417c0.124,0.459,0.645,1.713,0.7,2.166
							c0.049,0.451-0.307,1.946-0.367,2.473c-0.057,0.524,0.652,1.991,0.842,2.497c0.185,0.504,0.34,1.589,0.34,1.84
							c0,0.252,0.779,1.77,0.955,2.394C490.18,254.508,492.139,254.66,492.662,254.354z"/>
						<path style="fill:#FFFFFF;" d="M526.416,235.765c0.053,0.108,0.545-0.282,0.84-0.327c0.295-0.044,0.481-0.839,0.249-0.894
							c-0.232-0.063-0.523-0.67-0.69-0.745c-0.166-0.073-0.492,0.262-0.478,0.501c0.013,0.24-0.536,0.338-0.642,0.54
							c-0.103,0.2-0.096,0.345,0.018,0.324C525.822,235.145,526.367,235.653,526.416,235.765z"/>
						<path style="fill:#FFFFFF;" d="M525.813,240.063c0.148-0.055-0.017-0.835-0.322-0.901c-0.309-0.064-1.154,1.031-0.994,1.66
							c0.162,0.627,0.34,0.591,0.426,0.458c0.087-0.134,0.596,0.086,0.745,0.135c0.148,0.048,0.148-0.103,0-0.335
							C525.518,240.847,525.67,240.117,525.813,240.063z"/>
						<path style="fill:#FFFFFF;" d="M524.139,239.301c0.033-0.279,0.088-1.152,0.137-1.327c0.046-0.175-0.477-0.675-0.734-0.766
							c-0.258-0.089-1.082,1.701-1.674,2.02c-0.595,0.318-0.807,1.41-0.654,1.66c0.16,0.253,1.396,0.385,1.609,0.575
							c0.221,0.189,0.457-0.031,0.587-0.062c0.132-0.033,0.091-0.115,0.042-0.148c-0.05-0.03,0.43-0.538,0.502-0.861
							C524.018,240.072,524.102,239.579,524.139,239.301z"/>
						<path style="fill:#FFFFFF;" d="M520.775,242.283c-0.465-0.177-1.008,0.097-1.053,0.278c-0.045,0.178,1.785,0.468,2.392,0.634
							c0.608,0.164,0.986,0.218,0.85,0.116C522.822,243.207,521.238,242.459,520.775,242.283z"/>
						<path style="fill:#FFFFFF;" d="M524.491,230.371c0.147-0.205-0.202-1.163-0.381-0.946c-0.177,0.216-0.048,0.775,0.008,0.971
							C524.172,230.588,524.346,230.576,524.491,230.371z"/>
						<path style="fill:#FFFFFF;" d="M525.594,232.426c0.107-0.248-0.129-0.52-0.525-0.604c-0.397-0.082-0.338,1.11-0.163,1.263
							C525.074,233.233,525.489,232.676,525.594,232.426z"/>
						<path style="fill:#FFFFFF;" d="M527.655,239.81c0.477,0.333,1.534,0.178,1.566-0.461
							C528.754,239.043,527.615,239.093,527.655,239.81z"/>
						<path style="fill:#FFFFFF;" d="M527.4,225.199c-0.197,0.137-0.299,0.49-0.238,0.631c-0.029-0.001-0.056-0.001-0.082-0.001
							c-0.159,0-0.176,0.623-0.01,0.731c0.164,0.107,0.565-0.488,0.773-0.628c0.207-0.143,0.631-0.231,0.691-0.184
							c0.063,0.044,0.43-0.066,0.818-0.244c0.068-0.032,0.149-0.135,0.232-0.279c-0.096-0.459-0.205-0.907-0.313-1.356
							c-0.196,0.145-0.419,0.301-0.523,0.392C528.539,224.451,527.658,225.023,527.4,225.199z"/>
						<path style="fill:#FFFFFF;" d="M516.577,237.769c0.004,0,0.005,0,0.005,0.001C516.502,237.71,516.491,237.705,516.577,237.769
							z"/>
						<path style="fill:#FFFFFF;" d="M519.527,240.516c-0.17-0.388-0.736-1.042-1.26-1.457c0,0,0,0-0.199-0.324
							c-0.215-0.36-0.215-0.36-0.215-0.36c-0.195-0.394-0.783-0.697-0.832-0.814c-0.051-0.114-0.238,0.342-0.44,0.21
							c0.108,0.072,0.328,0.23,0.635,0.447c0.551,0.396,1.611,3.062,1.854,3.25C519.309,241.654,519.699,240.906,519.527,240.516z"
							/>
						<path style="fill:#FFFFFF;" d="M511.074,236.209c-0.148,0.303,0.785,0.942,0.855,0.794c0.078-0.146-0.118-0.885-0.285-1.05
							C511.48,235.794,511.223,235.907,511.074,236.209z"/>
						<path style="fill:#FFFFFF;" d="M498.705,250.453c0.035,0.317,0.68,0.568,0.863,0.517c0.191-0.054,0.709-1.01,0.783-1.285
							c0.072-0.279,0.131-0.872,0.131-1.011c0-0.14,0.086-0.46,0.159-0.499c0.067-0.037,0.186-0.363,0.26-0.722
							c0.073-0.363-0.388-2.045-0.399-2.339c-0.011-0.297-0.346,0.153-0.43,0.451c-0.092,0.297-0.927,0.907-1.112,1.162
							c-0.185,0.252-0.39,1.112-0.317,1.261c0.07,0.148-0.072,0.733-0.156,0.897C498.402,249.048,498.671,250.134,498.705,250.453z"
							/>
						<path style="fill:#FFFFFF;" d="M468.516,262.093c0.188,0,0.371,0,0.563,0C469.179,261.484,468.487,261.586,468.516,262.093z"
							/>
						<path style="fill:#FFFFFF;" d="M483.522,198.739c-0.238,0.028-0.847-0.093-0.951-0.207c-0.105-0.11-1.022-0.21-1.285-0.1
							c-0.266,0.112-0.084-0.643,0.283-0.725c0.367-0.083,0.057-0.602-0.334-0.603c-0.393-0.003-1.357-0.145-1.582-0.095
							c-0.23,0.05-0.672-0.159-0.834-0.182c-0.162-0.022-1.32,0.348-1.871,0.321c-0.547-0.025-1.896,0.03-2.187,0.11
							c-0.294,0.079-0.506,0.65-0.464,0.852c0.041,0.205-1.304,0.201-1.724,0.205c-0.428,0.007-2.685,0.486-3.273,0.812
							c-0.591,0.322-1.052,1.151-0.854,1.168c0.193,0.016-0.328,0.484-0.643,0.595c-0.32,0.109-1.075,0.157-1.254,0.335
							c-0.178,0.177,0.19,0.3,0.261,0.421c0.068,0.118,0.281-0.104,0.483,0.01c0.194,0.11,0.854,0.164,1.025,0.232
							c0.18,0.07-0.554,0.208-0.9,0.233c-0.345,0.023-0.268,0.703,0.014,0.795c0.281,0.094,1.006,0.193,1.078,0.077
							c0.076-0.118,0.861,0.127,1.218,0.171c0.351,0.037,0.622,0.922,0.73,1.117c0.108,0.192,0.128,0.868,0.104,1.063
							c-0.027,0.194,0.627,0.551,0.743,0.426c0.116-0.123,0.083,0.307-0.177,0.283c-0.262-0.021-0.09,0.729,0.229,0.837
							c0.321,0.106,0.101,0.568-0.082,0.709c-0.189,0.139-0.087,0.581-0.277,0.74c-0.189,0.156,0.673,1.648,0.669,2.419
							c-0.004,0.766,0.473,1.395,0.656,1.395c0.185,0,0.816,0.153,0.898,0.319c0.083,0.164,0.39-0.114,0.509-0.24
							c0.117-0.125,0.375-0.496,0.572-0.819c0.191-0.326,0.625-1.868,0.684-2.033c0.057-0.165,0.779-0.061,0.945-0.146
							c0.164-0.083,0.637-0.456,0.773-0.568c0.135-0.11,1.165-0.547,1.445-0.75c0.283-0.203,0.754-1.078,0.973-1.263
							c0.219-0.188-0.115-0.132-0.389-0.312c-0.272-0.18-0.154-0.4-0.072-0.484c0.077-0.086,0.908,0.138,1.197,0.249
							c0.286,0.114,0.831-0.284,0.623-0.436c-0.213-0.149-0.098-0.146,0-0.082c0.102,0.063,0.208-0.504,0.102-0.613
							c-0.113-0.109,0.84-0.803,0.672-1.459c-0.168-0.656,0.26-1.329,0.514-1.336c0.257-0.009,0.182-0.741-0.125-0.811
							c-0.305-0.067-0.017-0.133,0.097-0.238c0.114-0.105,0.261-0.759,0.194-0.886c-0.069-0.126,0.465-0.267,0.561-0.416
							c0.098-0.148,0.707-0.442,0.926-0.492C483.637,199.286,483.754,198.712,483.522,198.739z"/>
						<path style="fill:#FFFFFF;" d="M488.855,199.275c-0.293-0.1-0.883,0.223-0.81,0.406c0.075,0.186-0.481-0.235-0.872-0.035
							c-0.389,0.205-0.495,0.885-0.316,0.976c0.181,0.089,0.309,0.631,0.313,0.736c0.01,0.107,0.758,0.031,0.949-0.126
							c0.193-0.16,0.166,0.549-0.021,0.741c-0.189,0.19,0.068,0.576,0.276,0.606c0.21,0.031,0.493,0.524,0.709,0.519
							c0.216-0.005,0.58-0.832,0.663-1.144c0.086-0.306,0.803-0.064,1.131,0.036c0.328,0.096,0.446-1.14,0.092-1.327
							c-0.352-0.184-0.797-0.092-0.945-0.233c-0.146-0.143-0.396-0.275-0.563-0.301
							C489.299,200.104,489.141,199.372,488.855,199.275z"/>
						<path style="fill:#FFFFFF;" d="M491.717,199.867c0.575,0.082,1.224-0.394,1.365-0.531c0.144-0.131-1.602-0.488-2.265-0.507
							c-0.662-0.021-1.197,0.07-1.189,0.201C489.639,199.158,491.135,199.783,491.717,199.867z"/>
						<path style="fill:#FFFFFF;" d="M481.175,215.492c-0.152-0.065-0.238,0.508-0.2,0.725c0.033,0.217,0.564,0.197,0.791,0.158
							c0.227-0.038,0.404-0.22,0.395-0.41c-0.01-0.187-0.333-1.038-0.459-1.038C481.57,214.928,481.328,215.553,481.175,215.492z"/>
						<path style="fill:#FFFFFF;" d="M482.887,208.847c-0.121-0.21-1.025-0.185-1.249-0.199c-0.22-0.011-0.897-0.236-1.024-0.381
							c-0.126-0.145-0.229,0.558-0.434,0.648c-0.207,0.091,0.104,0.225,0.189,0.151c0.082-0.075-0.008,0.36-0.102,0.509
							c-0.093,0.15,0.604,0.254,0.685,0.482c0.074,0.225,0.363,0.372,0.639,0.327c0.271-0.043,0.818-0.325,1.01-0.345
							C482.795,210.02,483.004,209.055,482.887,208.847z"/>
						<path style="fill:#FFFFFF;" d="M501.918,203.655c0.311-0.311,1.591-0.733,1.734-1.055c0.146-0.323-0.088-0.587-0.217-0.587
							c-0.133,0-0.289,0.162-0.32,0.213c-0.033,0.055-1.502,0.399-1.951,0.617c-0.455,0.217-0.976,0.553-1.166,0.745
							c-0.19,0.192-0.5,1.649-0.611,1.813c-0.109,0.164,0.488,0.757,0.756,0.923c0.262,0.162,0.629,0.078,0.73,0.046
							c0.103-0.032-0.137-1.051-0.275-1.405C500.457,204.612,501.606,203.973,501.918,203.655z"/>
						<path style="fill:#FFFFFF;" d="M500.346,199.859c0.482,0.48,0.746-0.213,1.278-0.146
							C501.613,198.739,500.296,199.072,500.346,199.859z"/>
						<path style="fill:#FFFFFF;" d="M509.745,200.042c-0.011,0.178,1.341,0.324,1.735,0.254c0.397-0.07-0.08-0.686-0.659-0.65
							C510.246,199.685,509.764,199.861,509.745,200.042z"/>
						<path style="fill:#FFFFFF;" d="M460.76,210.075c-0.143,0.132-0.021,0.794,0.252,0.814c0.27,0.018,0.703-1.001,1.035-0.797
							c0.33,0.205,0.555,0.286,0.502,0.177c-0.056-0.108-1-0.521-1.115-0.598C461.315,209.601,460.904,209.947,460.76,210.075z"/>
						<path style="fill:#FFFFFF;" d="M464.219,232.541c0,0.11,0.59,0.096,0.688-0.087c0.092-0.178,0.045-0.326-0.115-0.326
							C464.633,232.128,464.219,232.426,464.219,232.541z"/>
						<path style="fill:#FFFFFF;" d="M461.595,231.569c0.282-0.053,0.147,0.405,0.218,0.566c0.067,0.165,0.742,0.296,0.877,0.408
							c0.138,0.108,0.487-0.208,0.758-0.174c0.27,0.034-0.089-0.936-0.545-0.909c-0.452,0.03-0.812-0.41-0.918-0.463
							c-0.111-0.05-0.633-0.369-0.787-0.492c-0.146-0.119-1.301-0.223-1.695-0.223c-0.395,0-0.826,0.401-0.887,0.531
							c-0.061,0.134,0.623,0.223,0.817,0.118c0.198-0.102,1.112,0.115,1.298,0.336C460.918,231.488,461.309,231.625,461.595,231.569
							z"/>
						<path style="fill:#FFFFFF;" d="M460.359,232.541c0,0.11,0.596,0.042,0.737,0.046c0.145,0.002,0.14-0.096-0.009-0.217
							C460.938,232.25,460.359,232.426,460.359,232.541z"/>
						<path style="fill:#FFFFFF;" d="M460.781,229.475c-0.156-0.061-0.279,0.184-0.279,0.297c0,0.115,0.082,0.209,0.189,0.209
							C460.795,229.981,460.935,229.536,460.781,229.475z"/>
						<path style="fill:#FFFFFF;" d="M462.027,229.571c-0.051-0.114-0.307-0.209-0.381-0.209c-0.08,0-0.133,0.197-0.119,0.437
							C461.539,230.04,462.079,229.683,462.027,229.571z"/>
						<path style="fill:#FFFFFF;" d="M462.928,230.955c0.24-0.117,0.271-0.404,0.128-0.388c-0.144,0.014-0.407-0.415-0.563-0.476
							c-0.155-0.062-0.282,0.257-0.282,0.396c0,0.143,0.086,0.237,0.192,0.208C462.511,230.668,462.684,231.067,462.928,230.955z"/>
						<path style="fill:#FFFFFF;" d="M529.447,240.308c-0.125,0.066-0.724,0.135-0.802,0.018c-0.081-0.118-0.2,0.244-0.328,0.302
							c-0.129,0.06-0.06,0.373,0.134,0.275c0.133-0.066,0.703,0.249,1.164,0.54c0.094-0.458,0.174-0.918,0.251-1.382
							C529.697,240.148,529.525,240.266,529.447,240.308z"/>
					</g>
					<path style="fill:#FFFFFF;" d="M464.412,202.559c-0.043-0.043-0.215,0.081-0.138,0.158
						C464.313,202.769,464.478,202.644,464.412,202.559z"/>
					<path style="fill:#FFFFFF;" d="M468.945,216.074c-0.031-0.05-0.207,0.081-0.143,0.161
						C468.846,216.281,469.02,216.155,468.945,216.074z"/>
				</g>
				<g>
					<g>
						<g>
							<rect x="553.971" y="246.588" style="fill:#FFBF0D;" width="18.571" height="7.351"/>
						</g>
						<g>
							<rect x="583.664" y="229.949" style="fill:#FFBF0D;" width="18.572" height="23.99"/>
						</g>
						<g>
							<rect x="613.359" y="193.965" style="fill:#FFBF0D;" width="18.572" height="59.974"/>
						</g>
						<g>
							<rect x="643.054" y="157.393" style="fill:#FFBF0D;" width="18.575" height="96.545"/>
						</g>
					</g>
					<polygon style="fill:#FFBF0D;" points="652.389,139.715 659.277,148.653 666.164,157.595 652.389,157.595 638.613,157.595 
						645.501,148.653 					"/>
				</g>
				<g>
					<g>
						<path style="fill:#1C4563;" d="M283.619,332.707h-23.703c-1.047,0-1.896-0.851-1.896-1.898s0.85-1.896,1.896-1.896h23.703
							c1.045,0,1.895,0.849,1.895,1.896S284.664,332.707,283.619,332.707L283.619,332.707z"/>
						<g>
							<g>
								<path style="fill:#FFBF0D;" d="M242.25,271.741c0-16.309,13.21-29.514,29.514-29.514c16.31,0,29.514,13.206,29.514,29.514
									c0,0.964-0.707,14.607-11.824,28.921c-3.256,4.321-2.719,13.011-2.689,13.011c-4.575,0-8.332,0-12.908,0
									c-1.4,0-2.797,0-4.19,0c-4.574,0-8.403,0-12.97,0c0.027,0,0.619-8.69-2.617-13.011
									C242.942,286.33,242.25,272.705,242.25,271.741z"/>
								<path style="fill:#122B42;" d="M286.793,313.687v15.431c0,1.055-0.853,1.916-1.915,1.916h-26.196
									c-1.055,0-1.911-0.86-1.911-1.916v-15.431H286.793z"/>
							</g>
						</g>
					</g>
					<g>
						<path style="fill:#1C4563;" d="M256.131,316.689h31.265c0.834,0,1.513-0.677,1.513-1.513s-0.679-1.513-1.513-1.513h-31.265
							c-0.835,0-1.51,0.677-1.51,1.513S255.296,316.689,256.131,316.689z"/>
						<path style="fill:#1C4563;" d="M287.396,318.705h-31.265c-0.835,0-1.51,0.678-1.51,1.513c0,0.836,0.675,1.513,1.51,1.513
							h31.265c0.834,0,1.513-0.677,1.513-1.513C288.908,319.383,288.229,318.705,287.396,318.705z"/>
						<path style="fill:#1C4563;" d="M287.396,323.748h-31.265c-0.835,0-1.51,0.677-1.51,1.511c0,0.836,0.675,1.513,1.51,1.513
							h31.265c0.834,0,1.513-0.677,1.513-1.513C288.908,324.425,288.229,323.748,287.396,323.748z"/>
					</g>
				</g>
			</g>
		</g>
		<path style="fill:#D1D3D4;" d="M131.246,463.706l-1.859-2.262c0.064-0.051,1.564-1.282,4.514-3.553l1.785,2.32
			C132.777,462.449,131.263,463.693,131.246,463.706z M140.189,456.799l-1.752-2.346c1.471-1.099,3.01-2.233,4.574-3.373
			l1.725,2.365C143.181,454.579,141.652,455.707,140.189,456.799z M149.317,450.142l-1.7-2.383c1.459-1.042,3.004-2.135,4.635-3.275
			l1.678,2.398C152.309,448.018,150.77,449.105,149.317,450.142z M158.57,443.665l-1.658-2.414c1.503-1.032,3.064-2.097,4.688-3.192
			l1.639,2.426C161.623,441.576,160.066,442.637,158.57,443.665z M167.93,437.344l-1.619-2.439c1.532-1.018,3.109-2.058,4.734-3.118
			l1.602,2.451C171.029,435.295,169.455,436.33,167.93,437.344z M177.383,431.166l-1.584-2.462c1.557-1.001,3.148-2.017,4.777-3.05
			l1.566,2.473C180.52,429.156,178.932,430.169,177.383,431.166z M186.924,425.123l-1.551-2.484c1.574-0.982,3.18-1.977,4.817-2.983
			l1.534,2.494C190.092,423.152,188.492,424.144,186.924,425.123z M196.543,419.208l-1.518-2.504
			c1.592-0.964,3.211-1.938,4.855-2.92l1.5,2.514C199.742,417.277,198.129,418.247,196.543,419.208z M206.238,413.419l-1.484-2.523
			c1.605-0.945,3.236-1.897,4.892-2.858l1.47,2.532C209.465,411.526,207.84,412.476,206.238,413.419z M216.006,407.75l-1.452-2.541
			c1.62-0.926,3.261-1.859,4.924-2.797l1.439,2.55C219.258,405.897,217.621,406.827,216.006,407.75z M225.842,402.203l-1.422-2.559
			c1.632-0.908,3.285-1.821,4.957-2.738l1.408,2.567C229.117,400.387,227.47,401.297,225.842,402.203z M235.744,396.773
			l-1.395-2.575c1.648-0.89,3.311-1.783,4.992-2.679l1.377,2.583C239.043,394.996,237.385,395.886,235.744,396.773z
			 M245.709,391.461l-1.362-2.591c1.656-0.871,3.329-1.745,5.021-2.621l1.346,2.599
			C249.029,389.721,247.361,390.592,245.709,391.461z M255.733,386.264l-1.332-2.607c1.669-0.853,3.352-1.707,5.05-2.563
			l1.318,2.614C259.075,384.562,257.397,385.414,255.733,386.264z M265.817,381.183l-1.302-2.621
			c1.678-0.835,3.371-1.669,5.078-2.505l1.287,2.629C269.18,379.519,267.492,380.351,265.817,381.183z M275.959,376.216
			l-1.273-2.636c1.691-0.815,3.391-1.631,5.107-2.447l1.257,2.644C279.34,374.59,277.644,375.403,275.959,376.216z M286.156,371.365
			l-1.243-2.65c1.699-0.796,3.411-1.593,5.133-2.39l1.229,2.658C289.557,369.776,287.85,370.57,286.156,371.365z M296.407,366.628
			l-1.214-2.665c1.707-0.777,3.428-1.555,5.16-2.332l1.199,2.671C299.824,365.077,298.11,365.853,296.407,366.628z M306.709,362.006
			l-1.184-2.678c1.718-0.759,3.445-1.517,5.187-2.275l1.168,2.685C310.145,360.493,308.422,361.249,306.709,362.006z
			 M317.063,357.498l-1.154-2.69c1.727-0.74,3.463-1.479,5.211-2.217l1.138,2.696C320.514,356.024,318.783,356.761,317.063,357.498z
			 M327.465,353.106l-1.125-2.703c1.736-0.721,3.48-1.441,5.234-2.159l1.109,2.709C330.934,351.67,329.194,352.387,327.465,353.106z
			 M337.914,348.829l-1.093-2.715c1.743-0.703,3.495-1.403,5.257-2.101l1.079,2.721C341.4,347.43,339.652,348.129,337.914,348.829z
			 M348.411,344.668l-1.063-2.727c1.75-0.683,3.511-1.363,5.279-2.043l1.051,2.733C351.912,343.307,350.157,343.986,348.411,344.668
			z M358.953,340.622l-1.035-2.739c1.76-0.663,3.527-1.325,5.304-1.984l1.018,2.745C362.469,339.3,360.707,339.961,358.953,340.622z
			 M369.539,336.693l-1.004-2.75c1.766-0.645,3.541-1.287,5.323-1.926l0.989,2.756C373.07,335.41,371.299,336.05,369.539,336.693z
			 M380.166,332.881l-0.973-2.761c1.773-0.626,3.556-1.248,5.346-1.867l0.957,2.766
			C383.713,331.637,381.935,332.258,380.166,332.881z M390.836,329.186l-0.942-2.772c1.78-0.605,3.567-1.208,5.366-1.808
			l0.926,2.776C394.396,327.981,392.611,328.582,390.836,329.186z M401.545,325.609l-0.912-2.782
			c1.787-0.587,3.583-1.17,5.385-1.749l0.896,2.786C405.117,324.443,403.328,325.024,401.545,325.609z M412.293,322.151
			l-0.881-2.792c1.794-0.566,3.596-1.129,5.404-1.69l0.865,2.797C415.878,321.024,414.082,321.586,412.293,322.151z M423.08,318.811
			l-0.852-2.801c1.801-0.546,3.607-1.089,5.422-1.63l0.836,2.807C426.676,317.724,424.873,318.266,423.08,318.811z M433.9,315.591
			l-0.818-2.811c1.806-0.526,3.619-1.05,5.439-1.569l0.804,2.815C437.51,314.544,435.701,315.066,433.9,315.591z M444.758,312.491
			l-0.789-2.819c1.813-0.507,3.632-1.01,5.457-1.51l0.773,2.824C448.379,311.484,446.565,311.986,444.758,312.491z M455.647,309.512
			l-0.756-2.828c1.817-0.486,3.64-0.969,5.474-1.448l0.74,2.831C459.279,308.546,457.46,309.027,455.647,309.512z M466.57,306.654
			l-0.726-2.836c1.823-0.467,3.653-0.929,5.489-1.388l0.709,2.84C470.213,305.728,468.389,306.189,466.57,306.654z M477.524,303.918
			l-0.694-2.844c1.828-0.445,3.664-0.888,5.504-1.326l0.679,2.849C481.176,303.032,479.348,303.473,477.524,303.918z
			 M488.508,301.304l-0.662-2.852c1.834-0.426,3.672-0.848,5.518-1.265l0.645,2.855
			C492.171,300.459,490.336,300.879,488.508,301.304z M499.52,298.813l-0.631-2.859c1.84-0.405,3.683-0.806,5.532-1.203l0.614,2.862
			C503.19,298.009,501.352,298.409,499.52,298.813z M510.558,296.445l-0.597-2.866c1.843-0.384,3.691-0.764,5.545-1.141l0.582,2.87
			C514.238,295.682,512.396,296.062,510.558,296.445z M521.623,294.201l-0.565-2.873c1.846-0.364,3.7-0.723,5.557-1.078l0.55,2.875
			C525.312,293.48,523.465,293.839,521.623,294.201z M532.711,292.082l-0.532-2.878c1.852-0.343,3.708-0.682,5.569-1.016
			l0.518,2.881C536.408,291.402,534.558,291.74,532.711,292.082z M543.824,290.088l-0.501-2.885
			c1.854-0.322,3.714-0.641,5.581-0.953l0.484,2.887C547.529,289.449,545.674,289.766,543.824,290.088z M554.959,288.218
			l-0.471-2.89c1.859-0.301,3.724-0.598,5.592-0.89l0.453,2.893C558.668,287.622,556.81,287.918,554.959,288.218z M566.112,286.475
			l-0.437-2.895c1.862-0.28,3.729-0.556,5.602-0.827l0.42,2.897C569.83,285.92,567.969,286.195,566.112,286.475z M577.285,284.857
			l-0.402-2.9c1.864-0.259,3.734-0.514,5.608-0.763l0.388,2.902C581.009,284.345,579.146,284.598,577.285,284.857z M588.477,283.366
			l-0.371-2.904c1.868-0.238,3.74-0.472,5.619-0.701l0.352,2.906C592.205,282.896,590.338,283.128,588.477,283.366z
			 M599.682,282.002l-0.336-2.908c1.87-0.216,3.746-0.428,5.624-0.636l0.323,2.91C603.417,281.574,601.549,281.785,599.682,282.002z
			 M610.904,280.765l-0.305-2.912c1.872-0.196,3.75-0.387,5.633-0.573l0.287,2.913C614.644,280.379,612.771,280.569,610.904,280.765
			z M622.139,279.654l-0.271-2.915c1.875-0.175,3.755-0.345,5.639-0.509l0.256,2.917
			C625.881,279.312,624.008,279.481,622.139,279.654z M633.385,278.672l-0.238-2.918c1.877-0.153,3.758-0.301,5.645-0.444
			l0.221,2.919C637.133,278.372,635.257,278.519,633.385,278.672z M644.643,277.817l-0.206-2.921
			c1.876-0.131,3.754-0.258,5.638-0.379l0.188,2.921C648.385,277.56,646.512,277.686,644.643,277.817z M655.896,277.091
			l-0.172-2.922l0.254-0.015l0.172,2.922L655.896,277.091z"/>
		<polygon style="fill:#D1D3D4;" points="673.854,273.827 646.094,290.585 652.539,275.833 643.456,262.541 		"/>
	</g>
	<path style="fill:#FFA90D;" d="M242.25,271.741c0,0.964,0.692,14.589,11.828,28.921c3.236,4.321,2.645,13.011,2.617,13.011
		c4.566,0,8.395,0,12.97,0c0.697,0,1.4,0,2.099,0v-71.446C255.46,242.227,242.25,255.432,242.25,271.741z"/>
</g>
</svg>
